<svg id="Calque_1" data-name="Calque 1" xmlns="http://www.w3.org/2000/svg" viewBox="0 0 595.28 763.94"><defs><style>.cls-1{fill:#096f39;}.cls-2{fill:#0595b6;}.cls-3{fill:#e52628;}.cls-4{fill:#2260ab;}.cls-5{fill:#fed303;}.cls-6{fill:#2ca94d;}</style></defs><path class="cls-1" d="M368.31,577.78a47.83,47.83,0,0,1-7.44,20.12L237.43,785.41A40.51,40.51,0,0,1,181.32,797L18.25,689.65A40.51,40.51,0,0,1,6.67,633.54l38.49-58.49a4.72,4.72,0,0,0,0,.65c0,21.57,75.08,39.08,163.43,39.08C294.06,614.78,363.89,598.39,368.31,577.78Z" transform="translate(0 -39.72)"/><path class="cls-2" d="M368.18,564.48a46.88,46.88,0,0,1,.36,11.22c-.05.67-.12,1.33-.21,2,0,0,0,0,0,.07-4.42,20.61-74.25,37-159.75,37-88.35,0-163.43-17.51-163.43-39.08,0-.21,85-129.69,85-129.69a47.85,47.85,0,0,1,27.81-19.93l79.6-20.83a49.72,49.72,0,0,0,28.94-20.77L306.91,323l97,63.86-40.47,61.49a49.73,49.73,0,0,0-7.62,34.79Z" transform="translate(0 -39.72)"/><polygon class="cls-3" points="380.56 337.68 314.38 377.54 324.83 301 380.56 337.68"/><polygon class="cls-3" points="454.73 224.98 380.56 337.68 324.83 301 382.7 213.07 417.25 214.51 454.73 224.98"/><path class="cls-2" d="M456.75,355.12l-14.48,22L300.68,283.93l14.48-22A7.83,7.83,0,0,1,326,259.69l128.52,84.59A7.82,7.82,0,0,1,456.75,355.12Z" transform="translate(0 -39.72)"/><path class="cls-4" d="M442.27,377.12l-14.48,22A7.83,7.83,0,0,1,417,401.36l-128.53-84.6a7.83,7.83,0,0,1-2.23-10.83l14.48-22Z" transform="translate(0 -39.72)"/><path class="cls-3" d="M595.28,113.24c-13.19,5.9-26.92,15.54-42.16,26.28,8.35-27,14.13-60,16.08-99.8-34.68,19.54-61.62,39.47-82.07,59,2.82-18.43,5.29-35,4.68-49.45-64.47,40-127.88,138-62,178.76a59.78,59.78,0,0,0,18.28,7.51,60.24,60.24,0,0,0,14.92,13C529,289.31,588.3,188.78,595.28,113.24Z" transform="translate(0 -39.72)"/><path class="cls-5" d="M527.66,159c-5.92,2.65-12.11,7-18.95,11.81,3.74-12.15,6.36-27,7.21-44.87-15.59,8.77-27.7,17.74-36.9,26.52,1.26-8.26,2.38-15.75,2.1-22.24-29,18-57.52,62.1-27.88,80.43a27.53,27.53,0,0,0,8.21,3.38,27.79,27.79,0,0,0,6.72,5.85C497.82,238.17,524.52,192.94,527.66,159Z" transform="translate(0 -39.72)"/><path class="cls-6" d="M368.54,575.7a9.73,9.73,0,0,1-.21,2s0,0,0,.07c-4.42,20.61-74.25,37-159.75,37-88.35,0-163.43-17.51-163.43-39.08,0-.21,6.09-10.7,10.6-13.72,23.54-15.76,80.44-25.36,152.83-25.36C296.93,536.62,368.54,554.12,368.54,575.7Z" transform="translate(0 -39.72)"/><path class="cls-6" d="M164.13,660A23.07,23.07,0,1,1,141.06,637,23.07,23.07,0,0,1,164.13,660Z" transform="translate(0 -39.72)"/><circle class="cls-6" cx="195.94" cy="751.46" r="11.78" transform="translate(-559.77 890.56) rotate(-88.7)"/><circle class="cls-6" cx="267.93" cy="637.27" r="16.98"/></svg>