<svg id="Calque_1" data-name="Calque 1" xmlns="http://www.w3.org/2000/svg" viewBox="0 0 593.68 765.41"><defs><style>.cls-1{fill:#6a6a69;}.cls-2{fill:#badfd8;}.cls-3{fill:#d9edec;}.cls-4{fill:#30989f;}.cls-5{fill:#eb9b67;}.cls-6{fill:#d0cc2a;}.cls-7{fill:#f7ae75;}.cls-8{fill:#fcd9c1;}</style></defs><rect class="cls-1" x="346.67" y="335.7" width="23.92" height="429.7"/><rect class="cls-2" x="355.93" width="237.76" height="356.24"/><rect class="cls-3" x="132.98" width="222.95" height="356.24"/><path class="cls-4" d="M364.92,90.53A127.09,127.09,0,1,0,492,217.62,127.1,127.1,0,0,0,364.92,90.53Zm0,225.42a98.33,98.33,0,1,1,98.33-98.33A98.34,98.34,0,0,1,364.92,316Z" transform="translate(-1.59 -39.5)"/><polygon class="cls-4" points="377.71 54.71 377.71 204.48 362.34 189.12 348.95 202.5 348.95 54.71 377.71 54.71"/><polygon class="cls-4" points="382.68 168.78 377.71 173.74 362.34 189.12 348.95 202.5 290.98 260.47 270.65 240.13 342.01 168.78 348.95 161.82 362.34 148.44 377.71 133.06 377.71 163.81 382.68 168.78"/><polygon class="cls-4" points="454.03 240.13 433.69 260.47 377.71 204.48 362.34 189.12 348.95 175.72 342.01 168.78 348.95 161.82 348.95 135.05 362.34 148.44 377.71 163.81 454.03 240.13"/><path class="cls-5" d="M228.41,585l32.7-5.22c60.13-55.94,57.58-55.45,64.89-55.48l58.36-.27,51.68,16s9.71,24.32-17.63,26.86c-24.76,2.31-59-6.41-59-6.41l11.56,24.71,2.75,121.18L266.38,707l-28.71-3.13Z" transform="translate(-1.59 -39.5)"/><polygon class="cls-6" points="0 521.79 0.17 691.45 216.5 690.74 216.33 521.09 0 521.79"/><polygon class="cls-3" points="216.35 538.82 216.47 673.01 241.46 672.97 241.35 538.8 216.35 538.82"/><path class="cls-7" d="M428.62,613.51a20,20,0,0,0-20-20,20,20,0,0,0,0-40H355.4a20,20,0,1,0,0,40,20,20,0,1,0,0,40,20,20,0,0,0,0,40,20,20,0,1,0,0,40h53.23a20,20,0,1,0,0-40,20,20,0,0,0,0-40A20,20,0,0,0,428.62,613.51Z" transform="translate(-1.59 -39.5)"/><path class="cls-8" d="M365.78,560.65a13.68,13.68,0,0,0-1.82-.18H355a13.06,13.06,0,0,0,0,26.12H364a12.2,12.2,0,0,0,1.82-.19Z" transform="translate(-1.59 -39.5)"/><path class="cls-8" d="M365.78,600a13.68,13.68,0,0,0-1.82-.18H355A13.06,13.06,0,1,0,355,626H364a12.2,12.2,0,0,0,1.82-.18Z" transform="translate(-1.59 -39.5)"/><path class="cls-8" d="M365.78,641.44a12.2,12.2,0,0,0-1.82-.19H355a13.06,13.06,0,1,0,0,26.11H364a12.2,12.2,0,0,0,1.82-.18Z" transform="translate(-1.59 -39.5)"/><path class="cls-8" d="M365.78,680.78a13.68,13.68,0,0,0-1.82-.18H355a13.06,13.06,0,1,0,0,26.11H364a12.2,12.2,0,0,0,1.82-.18Z" transform="translate(-1.59 -39.5)"/></svg>